<svg xmlns="http://www.w3.org/2000/svg" xmlns:xlink="http://www.w3.org/1999/xlink" xmlns:fi="http://pattern.flaticon.com/" x="0" y="0" width="1700" height="850" viewBox="0 0 1700 850"><rect x="0px" y="0px" width="100%" height="100%" opacity="1" fill="#818cf1"/><defs><path d="M490.107,1.69L8.275,243.606c-4.862,2.441-8.021,7.323-8.255,12.757c-0.234,5.435,2.491,10.571,7.125,13.421    l112.856,69.45V497c0,6.455,4.129,12.185,10.252,14.228c6.124,2.043,12.865-0.06,16.741-5.221l77.13-102.697l173.004,106.464    c4.199,2.584,9.401,2.94,13.912,0.95c4.512-1.989,7.758-6.069,8.683-10.913l91.983-481.91c0.031-0.16,0.06-0.32,0.086-0.481    C513.759,5.273,501.016-3.93,490.107,1.69z M134.214,312.758L45.785,258.34L398.697,81.152L134.214,312.758z M149.998,452.052    V338.81l248.446-217.561C392.987,128.514,156.496,443.4,149.998,452.052z M394.33,472.83l-152.116-93.61L470.118,75.769    L394.33,472.83z" transform="matrix(0.06634878367185593 0 0 0.06634878367185593 300.0147113800049 20.014711380004883)" id="L1_0" fill="#f7fafc"/><g transform="matrix(0.07102730870246887 0 0 0.07102730870246887 123.79398780567419 221.93212684484837)" id="L1_1"><path d="M467,75.993h-45v-15c0-24.813-20.187-45-45-45H45c-24.813,0-45,20.187-45,45v240c0,24.813,20.187,45,45,45h45v75    c0,13.384,16.222,19.992,25.606,10.606l25.607-25.606h169.574l85.606,85.606c9.389,9.393,25.606,2.8,25.606-10.606v-75h45    c24.813,0,45-20.187,45-45v-240C512,96.18,491.813,75.993,467,75.993z M120,384.78v-53.787c0-8.284-6.716-15-15-15H45    c-8.271,0-15-6.729-15-15v-240c0-8.271,6.729-15,15-15h332c8.271,0,15,6.729,15,15v240c0,8.271-6.729,15-15,15H195    c-3.979,0-7.793,1.581-10.606,4.394L120,384.78z M482,360.993c0,8.271-6.729,15-15,15h-60c-8.284,0-15,6.716-15,15v53.787    l-64.394-64.393c-2.813-2.813-6.628-4.394-10.606-4.394H171.213l30-30H377c24.813,0,45-20.187,45-45v-195h45    c8.271,0,15,6.729,15,15V360.993z" fill="#f7fafc"/><path d="M287,105.993H75c-8.284,0-15,6.716-15,15s6.716,15,15,15h212c8.284,0,15-6.716,15-15S295.284,105.993,287,105.993z" fill="#f7fafc"/><path d="M347,165.993H75c-8.284,0-15,6.716-15,15s6.716,15,15,15h272c8.284,0,15-6.716,15-15S355.284,165.993,347,165.993z" fill="#f7fafc"/><path d="M227,225.993H75c-8.284,0-15,6.716-15,15s6.716,15,15,15h152c8.284,0,15-6.716,15-15S235.284,225.993,227,225.993z" fill="#f7fafc"/></g></defs><g fi:class="KUsePattern"><pattern id="pattern_L1_0" width="350" height="350" patternUnits="userSpaceOnUse"><use xlink:href="#L1_0" x="-350" y="-350"/><use xlink:href="#L1_0" x="0" y="-350"/><use xlink:href="#L1_0" x="350" y="-350"/><use xlink:href="#L1_0" x="-350" y="0"/><use xlink:href="#L1_0" x="0" y="0"/><use xlink:href="#L1_0" x="350" y="0"/><use xlink:href="#L1_0" x="-350" y="350"/><use xlink:href="#L1_0" x="0" y="350"/><use xlink:href="#L1_0" x="350" y="350"/></pattern><rect x="0" y="0" width="100%" height="100%" fill="url(#pattern_L1_0)"/></g><g fi:class="KUsePattern"><pattern id="pattern_L1_1" width="350" height="350" patternUnits="userSpaceOnUse"><use xlink:href="#L1_1" x="-350" y="-350"/><use xlink:href="#L1_1" x="0" y="-350"/><use xlink:href="#L1_1" x="350" y="-350"/><use xlink:href="#L1_1" x="-350" y="0"/><use xlink:href="#L1_1" x="0" y="0"/><use xlink:href="#L1_1" x="350" y="0"/><use xlink:href="#L1_1" x="-350" y="350"/><use xlink:href="#L1_1" x="0" y="350"/><use xlink:href="#L1_1" x="350" y="350"/></pattern><rect x="0" y="0" width="100%" height="100%" fill="url(#pattern_L1_1)"/></g></svg>